<svg width="512" height="512" viewBox="0 0 512 512" fill="none" xmlns="http://www.w3.org/2000/svg">
<path d="M17 289C17 337.171 92.388 429.387 256.484 429.387C420.58 429.387 495.968 337.172 495.968 289H17Z" fill="#8478CD" fill-opacity="0.62"/>
<path d="M256.485 289H17C17 289 17 326.161 58.29 326.161C91.322 326.161 173.903 307.58 256.484 307.58C339.065 307.58 421.646 326.161 454.678 326.161C495.968 326.161 495.968 289 495.968 289H256.485Z" fill="#8478CD"/>
<path d="M500.458 242.797C462.452 214.709 381.771 167.822 338.581 150.296C319.314 142.478 305.549 132.128 256 132.128C206.451 132.128 192.686 142.477 173.419 150.296C130.229 167.822 49.548 214.709 11.542 242.797C5.012 247.623 0 255.363 0 264.734C0 278.153 9.065 289.032 20.248 289.032H491.752C502.934 289.032 512 278.153 512 264.734C512 255.363 506.989 247.623 500.458 242.797Z" fill="#8478CD" fill-opacity="0.77"/>
<path d="M214.71 247.742C210.145 247.742 206.452 244.049 206.452 239.484V231.226C206.452 226.661 210.145 222.968 214.71 222.968C219.275 222.968 222.968 226.661 222.968 231.226V239.484C222.968 244.048 219.275 247.742 214.71 247.742Z" fill="#465255"/>
<path d="M297.291 247.742C292.726 247.742 289.033 244.049 289.033 239.484V231.226C289.033 226.661 292.726 222.968 297.291 222.968C301.856 222.968 305.549 226.661 305.549 231.226V239.484C305.549 244.048 301.856 247.742 297.291 247.742Z" fill="#465255"/>
<path d="M94.968 227.774C165.162 227.774 188.676 189.494 196.376 171.06C199.252 164.175 198.703 156.374 194.934 149.935C182.427 128.565 146.552 78.836 90.178 93.5C75.488 97.321 65.86 111.477 66.786 126.628C68.911 161.385 76.822 227.774 94.968 227.774Z" fill="#8478CD"/>
<path d="M148.645 198.193C148.645 198.193 124.613 227.773 94.967 227.773C65.321 227.773 41.289 200.043 41.289 165.837C41.289 131.631 65.321 103.901 94.967 103.901C123.871 103.902 148.645 163.987 148.645 198.193Z" fill="#3D030D"/>
<path d="M70.194 140.387C61.08 140.387 52.506 141.472 44.988 143.372C42.631 150.344 41.29 157.904 41.29 165.838C41.29 173.773 42.631 181.332 44.988 188.304C52.506 190.204 61.08 191.289 70.194 191.289C99.839 191.289 115.613 179.894 115.613 165.838C115.613 151.782 99.839 140.387 70.194 140.387Z" fill="white"/>
<path d="M417.033 227.774C346.839 227.774 323.325 189.494 315.625 171.06C312.749 164.175 313.298 156.374 317.067 149.935C329.574 128.566 365.449 78.837 421.823 93.501C436.513 97.322 446.141 111.478 445.215 126.629C443.089 161.385 435.179 227.774 417.033 227.774Z" fill="#8478CD"/>
<path d="M363.356 198.193C363.356 198.193 387.388 227.773 417.034 227.773C446.68 227.773 470.712 200.043 470.712 165.837C470.712 131.631 446.68 103.901 417.034 103.901C388.13 103.902 363.356 163.987 363.356 198.193Z" fill="#3D030D"/>
<path d="M441.807 140.387C450.921 140.387 459.495 141.472 467.013 143.372C469.369 150.344 470.711 157.904 470.711 165.838C470.711 173.773 469.37 181.332 467.013 188.304C459.495 190.204 450.921 191.289 441.807 191.289C412.162 191.289 396.388 179.894 396.388 165.838C396.388 151.782 412.162 140.387 441.807 140.387Z" fill="white"/>
</svg>
